<?xml version="1.0" encoding="UTF-8"?>
<svg id="Layer_2" data-name="Layer 2" xmlns="http://www.w3.org/2000/svg" viewBox="0 0 315.96 330.14">
  <defs>
    <style>
      .cls-1 {
        fill: #fff;
      }
    </style>
  </defs>
  <g id="_13" data-name="13">
    <g>
      <path class="cls-1" d="m228.33,148.69v32.76c0,2.99-2.42,5.41-5.41,5.41h-33.19c-1.2,0-2.17.97-2.17,2.17v33.19c0,2.99-2.42,5.41-5.41,5.41h-32.77c-2.99,0-5.41-2.42-5.41-5.41v-33.19c0-1.2-.97-2.17-2.17-2.17h-33.19c-2.99,0-5.41-2.42-5.41-5.41v-32.76c0-2.99,2.42-5.41,5.41-5.41h33.19c1.2,0,2.17-.97,2.17-2.17v-33.19c0-2.99,2.42-5.41,5.41-5.41h32.76c2.99,0,5.41,2.42,5.41,5.41v33.19c0,1.2.97,2.17,2.17,2.17h33.19c2.99,0,5.41,2.42,5.41,5.41Z"/>
      <path class="cls-1" d="m315.23,199c-.87,1.02-1.62,1.67-2.09,2.48-1.44,2.52-2.69,5.16-4.18,7.66-2.02,3.4-4.13,6.77-6.37,10.03-.44.64-1.67.73-2.53,1.07-.24-.76-.66-1.51-.7-2.28-.1-1.78,0-3.58-.02-5.37,0-.72.05-1.52-.21-2.15-.37-.87-1.01-1.62-1.54-2.42-.79.54-1.77.93-2.33,1.64-1.05,1.35-1.85,2.9-2.77,4.35-1.4,2.21-2.81,4.4-4.22,6.6-.26-.06-.52-.12-.78-.17,0-1.29-.09-2.6.02-3.88.21-2.5.59-5,.75-7.5.04-.69-.46-1.41-.7-2.12-.76.29-1.77.37-2.22.92-1.4,1.66-2.61,3.49-3.84,5.28-3.56,5.18-7.07,10.39-10.65,15.55-.52.74-1.37,1.25-2.07,1.87-.18-.12-.36-.24-.54-.36.21-.78.33-1.6.63-2.35,2.94-7.51,6.07-14.95,8.8-22.53,2.46-6.82,3.93-13.89,3.4-21.23-.08-1.11-.51-2.19-.78-3.28-.27-.04-.53-.07-.8-.11-4.56,5.13-5.07,12.42-9.03,17.9-.07-.76,0-1.47.1-2.17.97-6.28,2.41-12.52,1.71-18.93-.32-2.95-.96-5.87-1.61-8.76-.14-.63-.97-1.55-1.47-1.54-.58.01-1.22.83-1.68,1.42-.02.02-.03.04-.04.06-.57,6.52-1.92,12.82-4.04,18.92-1.33,8.34-3.99,16.33-7.99,23.94-4.18,12.84-11.31,23.95-21.41,33.33-9.38,10.1-20.49,17.24-33.33,21.41-12.34,6.48-25.64,9.46-39.9,8.92-18.69-.06-36.11-4.77-52.27-14.14-6.99-5.4-13.97-10.79-20.96-16.19-12.07-12.15-20.64-26.35-25.71-42.59-1.48-3.66-2.77-7.44-3.86-11.34-1.23-9.18-2.47-18.35-3.7-27.53-.54-14.26,2.44-27.56,8.92-39.9,1.89-5.8,4.39-11.25,7.48-16.34,4.27-8.72,10.1-16.52,17.51-23.4,9.52-10.25,20.8-17.5,33.84-21.74,12.53-6.58,26.03-9.6,40.51-9.06,3.85.01,7.65.23,11.39.63,1.31-.15,2.64-.2,4-.15,2.32,0,4.57.25,6.75.73,39.43,4.92,86.46,36.79,97.51,98.22.23-1.01.39-2.03.38-3.06-.07-10.4-2.44-20.31-6.21-29.95-4.82-12.31-12.1-23.21-19.49-34.05-2.03-2.97-4.08-5.92-6.13-8.88.2-.2.39-.4.59-.59,1.8,1.55,3.76,2.95,5.38,4.67,10.73,11.42,18.87,24.5,24.72,39.03,4.76,11.81,7.04,24.24,9.15,36.71.47,2.8,1.18,5.57,1.99,8.28.24.8,1.22,1.39,1.86,2.07.58-.66,1.29-1.26,1.7-2.01.43-.8.63-1.74.82-2.64,1.75-8.4,1.01-16.77-.63-25.06-3.63-18.35-11.04-35.15-21.32-50.73-1.97-2.98-3.85-6.02-5.64-9.11-.47-.81-.44-1.91-.63-2.88.98.37,2.23.48,2.88,1.16,3.28,3.45,6.57,6.91,9.52,10.64,3.61,4.57,6.86,9.42,10.34,14.1.73.98,1.68,1.88,2.71,2.55,1.17.77,2.18.4,1.95-1.17-.3-2.08-.64-4.2-1.35-6.16-3.34-9.2-8.93-17.09-14.73-24.85-.42-.56-.81-1.13-1.3-1.81,1.94-.74,2.23-2.05,1.87-3.65-.35-1.55-.76-3.09-1.01-4.65-.12-.73.09-1.51.15-2.27.75.06,1.54,0,2.24.21,1.45.43,2.84,1.09,4.3,1.5.69.19,1.49.02,2.24,0-.08-.8-.01-1.66-.28-2.39-.34-.92-.86-1.81-1.48-2.57-2.46-3.03-4.76-6.23-7.53-8.97-17.6-17.39-38.32-29.64-61.78-37.4C192.92.37,167.82-1.93,142.22,1.61c-25.87,3.58-49.6,12.77-71.06,27.73-17.15,11.96-31.63,26.56-43.22,43.95C11.46,98,2.27,125.23.34,154.89c-1.02,15.71.26,31.26,3.82,46.57,8.67,37.33,28,68.08,57.87,92.03,24.13,19.35,51.6,31.19,82.37,35.2,19.03,2.48,37.92,1.79,56.71-2.05,20.69-4.23,39.74-12.39,57.21-24.19,4.98-3.36,9.7-7.15,12.75-12.6,1.58-2.82,3.31-5.6,5.31-8.13,9.09-11.57,18.1-23.17,25.27-36.09,6.4-11.53,11.56-23.51,13.76-36.6.53-3.16.98-6.38-.18-10.03Zm-209.75,88.13c-9.46-3.85-17.68-9.69-25.58-16.05.1-.16.19-.32.29-.48,1.56.97,3.12,1.93,4.67,2.9,6.53,4.11,13.05,8.22,19.58,12.32.43.27.86.54,1.29.82l-.25.49Zm29.34,10.11c20.65,3.3,41.29,3.22,61.88-.62-20.53,6.07-41.14,6.8-61.88.62Zm89.97-21.01c-.11-.16-.22-.32-.33-.48,4.74-3.12,9.48-6.24,14.21-9.36-3.91,4.33-8.9,7.09-13.89,9.84Z"/>
    </g>
  </g>
</svg>