<svg width="299" height="187" viewBox="0 0 299 187" fill="none" xmlns="http://www.w3.org/2000/svg">
<path d="M229.44 48.56H101.48V3H79.97V48.56H21.51V3H0V117.22C0 126.78 1.79 135.74 5.38 144.11C8.97 152.48 13.88 159.79 20.13 166.03C26.38 172.28 33.68 177.2 42.05 180.78C49.62 184.03 57.69 185.79 66.25 186.09V186.15H229.16C238.72 186.15 247.68 184.36 256.05 180.78C264.41 177.2 271.72 172.3 277.97 166.05C284.22 159.81 289.14 152.52 292.72 144.17C296.31 135.82 298.1 126.88 298.1 117.34V106.61H183.1C184.38 101.29 186.45 96.38 189.31 91.89C192.16 87.4 195.65 83.54 199.79 80.33C203.93 77.12 208.52 74.6 213.58 72.76C218.01 71.16 222.61 70.25 227.39 70.05H298.38V48.54H229.44V48.56ZM66.25 164.49V164.58C60.64 164.29 55.38 163.07 50.46 160.93C44.76 158.45 39.75 155.05 35.43 150.73C31.11 146.41 27.71 141.4 25.23 135.7C22.75 130 21.51 123.84 21.51 117.22V70.06H79.97V117.22C79.97 126.78 81.76 135.74 85.35 144.11C88.65 151.8 93.08 158.59 98.63 164.49H66.25ZM275.49 128.09C274.2 133.41 272.13 138.32 269.29 142.81C266.44 147.31 262.95 151.16 258.81 154.37C254.67 157.58 250.08 160.11 245.02 161.94C239.96 163.78 234.68 164.69 229.16 164.69H211.56V164.48H144.98C139.84 164.08 134.98 162.91 130.42 160.92C124.72 158.44 119.71 155.04 115.39 150.72C111.07 146.4 107.67 141.39 105.19 135.69C102.71 129.99 101.47 123.83 101.47 117.21V70.05H179.53C173.8 76.03 169.24 82.94 165.87 90.79C162.28 99.14 160.49 107.99 160.49 117.35V128.09H275.49Z" fill="white"/>
<path d="M107.462 5.19354V3.54545H115.227V5.19354H112.332V13H110.356V5.19354H107.462ZM116.505 13V3.54545H122.876V5.19354H118.504V7.44638H122.548V9.09446H118.504V11.3519H122.895V13H116.505ZM132.807 6.85547H130.785C130.748 6.59387 130.673 6.36151 130.559 6.15838C130.445 5.95218 130.299 5.77675 130.12 5.6321C129.942 5.48745 129.736 5.37666 129.502 5.29972C129.271 5.22277 129.02 5.1843 128.749 5.1843C128.26 5.1843 127.834 5.30587 127.471 5.54901C127.107 5.78906 126.826 6.13991 126.626 6.60156C126.426 7.06013 126.326 7.61719 126.326 8.27273C126.326 8.94673 126.426 9.51302 126.626 9.97159C126.829 10.4302 127.112 10.7764 127.475 11.0103C127.838 11.2442 128.258 11.3612 128.736 11.3612C129.003 11.3612 129.251 11.3258 129.479 11.255C129.71 11.1842 129.914 11.0811 130.093 10.9457C130.271 10.8072 130.419 10.6394 130.536 10.4425C130.656 10.2455 130.739 10.0208 130.785 9.76847L132.807 9.7777C132.755 10.2116 132.624 10.6302 132.415 11.0334C132.209 11.4335 131.93 11.792 131.579 12.109C131.232 12.4229 130.816 12.6722 130.333 12.8569C129.853 13.0385 129.31 13.1293 128.703 13.1293C127.86 13.1293 127.106 12.9384 126.441 12.5568C125.779 12.1752 125.256 11.6228 124.872 10.8995C124.49 10.1763 124.299 9.30066 124.299 8.27273C124.299 7.24171 124.493 6.36458 124.881 5.64134C125.269 4.91809 125.795 4.36719 126.46 3.98864C127.124 3.60701 127.872 3.41619 128.703 3.41619C129.251 3.41619 129.759 3.49313 130.227 3.64702C130.698 3.8009 131.115 4.02557 131.478 4.32102C131.841 4.6134 132.136 4.97195 132.364 5.39666C132.595 5.82138 132.743 6.30765 132.807 6.85547ZM134.241 13V3.54545H136.24V7.44638H140.297V3.54545H142.292V13H140.297V9.09446H136.24V13H134.241ZM107.462 21.1935V19.5455H115.227V21.1935H112.332V29H110.356V21.1935H107.462ZM116.505 29V19.5455H120.235C120.949 19.5455 121.559 19.6732 122.064 19.9286C122.571 20.181 122.958 20.5395 123.222 21.0043C123.49 21.4659 123.624 22.0091 123.624 22.6339C123.624 23.2617 123.489 23.8018 123.218 24.2543C122.947 24.7036 122.554 25.0483 122.04 25.2884C121.53 25.5284 120.911 25.6484 120.185 25.6484H117.687V24.0419H119.862C120.243 24.0419 120.56 23.9896 120.812 23.8849C121.065 23.7803 121.253 23.6233 121.376 23.4141C121.502 23.2048 121.565 22.9447 121.565 22.6339C121.565 22.32 121.502 22.0553 121.376 21.8398C121.253 21.6244 121.063 21.4613 120.808 21.3505C120.556 21.2366 120.237 21.1797 119.852 21.1797H118.504V29H116.505ZM121.611 24.6974L123.961 29H121.754L119.455 24.6974H121.611ZM126.666 29H124.524L127.788 19.5455H130.364L133.623 29H131.481L129.113 21.706H129.039L126.666 29ZM126.532 25.2837H131.592V26.8441H126.532V25.2837ZM138.113 29H134.761V19.5455H138.14C139.091 19.5455 139.91 19.7347 140.596 20.1133C141.283 20.4888 141.811 21.0289 142.18 21.7337C142.552 22.4384 142.738 23.2817 142.738 24.2635C142.738 25.2483 142.552 26.0947 142.18 26.8026C141.811 27.5104 141.28 28.0536 140.587 28.4322C139.898 28.8107 139.073 29 138.113 29ZM136.76 27.2873H138.03C138.621 27.2873 139.118 27.1826 139.521 26.9734C139.927 26.761 140.232 26.4332 140.435 25.9901C140.641 25.5438 140.744 24.9683 140.744 24.2635C140.744 23.5649 140.641 22.994 140.435 22.5508C140.232 22.1076 139.929 21.7814 139.525 21.5721C139.122 21.3628 138.625 21.2582 138.034 21.2582H136.76V27.2873ZM144.219 29V19.5455H150.59V21.1935H146.218V23.4464H150.262V25.0945H146.218V27.3519H150.608V29H144.219ZM112.951 38.2646C112.914 37.8922 112.755 37.6029 112.475 37.3967C112.195 37.1905 111.815 37.0874 111.335 37.0874C111.009 37.0874 110.733 37.1335 110.509 37.2259C110.284 37.3151 110.112 37.4397 109.991 37.5998C109.875 37.7598 109.816 37.9414 109.816 38.1445C109.81 38.3138 109.845 38.4615 109.922 38.5877C110.002 38.7139 110.112 38.8232 110.25 38.9155C110.388 39.0047 110.549 39.0832 110.73 39.1509C110.912 39.2156 111.106 39.271 111.312 39.3171L112.161 39.5202C112.574 39.6126 112.952 39.7357 113.297 39.8896C113.642 40.0434 113.94 40.2327 114.192 40.4574C114.445 40.6821 114.64 40.9467 114.779 41.2514C114.92 41.5561 114.993 41.9054 114.996 42.2994C114.993 42.878 114.845 43.3796 114.553 43.8043C114.263 44.226 113.845 44.5537 113.297 44.7876C112.752 45.0185 112.095 45.1339 111.326 45.1339C110.562 45.1339 109.898 45.0169 109.331 44.783C108.768 44.5491 108.328 44.2029 108.011 43.7443C107.697 43.2827 107.532 42.7118 107.517 42.0316H109.451C109.473 42.3486 109.564 42.6133 109.724 42.8256C109.887 43.0349 110.104 43.1934 110.375 43.3011C110.649 43.4058 110.958 43.4581 111.303 43.4581C111.641 43.4581 111.935 43.4089 112.184 43.3104C112.437 43.2119 112.632 43.0749 112.771 42.8995C112.909 42.7241 112.978 42.5225 112.978 42.2947C112.978 42.0824 112.915 41.9039 112.789 41.7592C112.666 41.6146 112.484 41.4915 112.244 41.3899C112.007 41.2884 111.717 41.196 111.372 41.1129L110.342 40.8544C109.545 40.6605 108.916 40.3574 108.454 39.945C107.993 39.5326 107.763 38.977 107.766 38.2784C107.763 37.706 107.916 37.2058 108.223 36.7781C108.534 36.3503 108.96 36.0163 109.502 35.7763C110.044 35.5362 110.659 35.4162 111.349 35.4162C112.05 35.4162 112.663 35.5362 113.186 35.7763C113.712 36.0163 114.122 36.3503 114.414 36.7781C114.706 37.2058 114.857 37.7013 114.866 38.2646H112.951ZM116.34 45V35.5455H118.339V39.4464H122.397V35.5455H124.391V45H122.397V41.0945H118.339V45H116.34ZM134.728 40.2727C134.728 41.3037 134.532 42.1809 134.141 42.9041C133.754 43.6274 133.224 44.1798 132.553 44.5614C131.886 44.94 131.135 45.1293 130.301 45.1293C129.46 45.1293 128.706 44.9384 128.038 44.5568C127.371 44.1752 126.843 43.6228 126.455 42.8995C126.067 42.1763 125.873 41.3007 125.873 40.2727C125.873 39.2417 126.067 38.3646 126.455 37.6413C126.843 36.9181 127.371 36.3672 128.038 35.9886C128.706 35.607 129.46 35.4162 130.301 35.4162C131.135 35.4162 131.886 35.607 132.553 35.9886C133.224 36.3672 133.754 36.9181 134.141 37.6413C134.532 38.3646 134.728 39.2417 134.728 40.2727ZM132.701 40.2727C132.701 39.6049 132.601 39.0417 132.401 38.5831C132.204 38.1245 131.926 37.7768 131.565 37.5398C131.205 37.3028 130.784 37.1843 130.301 37.1843C129.817 37.1843 129.396 37.3028 129.036 37.5398C128.676 37.7768 128.395 38.1245 128.195 38.5831C127.998 39.0417 127.9 39.6049 127.9 40.2727C127.9 40.9406 127.998 41.5038 128.195 41.9624C128.395 42.4209 128.676 42.7687 129.036 43.0057C129.396 43.2427 129.817 43.3612 130.301 43.3612C130.784 43.3612 131.205 43.2427 131.565 43.0057C131.926 42.7687 132.204 42.4209 132.401 41.9624C132.601 41.5038 132.701 40.9406 132.701 40.2727ZM137.981 45L135.276 35.5455H137.46L139.025 42.1147H139.103L140.83 35.5455H142.699L144.421 42.1286H144.504L146.069 35.5455H148.253L145.548 45H143.599L141.799 38.8185H141.725L139.929 45H137.981Z" fill="white"/>
<path d="M162.124 43V37.1278L175.845 24.4237C177.012 23.2944 177.99 22.2781 178.781 21.3746C179.584 20.4712 180.192 19.5866 180.607 18.7209C181.021 17.8426 181.228 16.8952 181.228 15.8789C181.228 14.7496 180.97 13.7772 180.456 12.9616C179.942 12.1335 179.239 11.4999 178.348 11.0607C177.457 10.609 176.447 10.3832 175.318 10.3832C174.138 10.3832 173.109 10.6216 172.231 11.0984C171.353 11.5752 170.675 12.259 170.199 13.1499C169.722 14.0407 169.483 15.101 169.483 16.3306H161.748C161.748 13.8086 162.319 11.6191 163.461 9.76207C164.602 7.90507 166.202 6.46839 168.26 5.45206C170.318 4.43572 172.689 3.92756 175.374 3.92756C178.135 3.92756 180.538 4.4169 182.583 5.3956C184.641 6.36174 186.24 7.70431 187.382 9.42329C188.524 11.1423 189.095 13.1122 189.095 15.3331C189.095 16.7886 188.806 18.2253 188.229 19.6431C187.664 21.061 186.654 22.6357 185.199 24.3672C183.743 26.0862 181.692 28.1502 179.044 30.5593L173.417 36.0739V36.3374H189.603V43H162.124ZM210.621 43.8469C207.384 43.8344 204.599 43.0376 202.265 41.4567C199.944 39.8757 198.156 37.5858 196.901 34.587C195.659 31.5882 195.044 27.9808 195.056 23.7649C195.056 19.5616 195.677 15.9793 196.92 13.0181C198.174 10.0569 199.962 7.80469 202.284 6.26136C204.617 4.70549 207.397 3.92756 210.621 3.92756C213.846 3.92756 216.619 4.70549 218.94 6.26136C221.274 7.81723 223.068 10.0758 224.323 13.0369C225.578 15.9856 226.199 19.5616 226.186 23.7649C226.186 27.9934 225.559 31.607 224.304 34.6058C223.062 37.6046 221.28 39.8945 218.959 41.4755C216.638 43.0565 213.859 43.8469 210.621 43.8469ZM210.621 37.0902C212.83 37.0902 214.593 35.9798 215.91 33.7589C217.228 31.538 217.88 28.2067 217.867 23.7649C217.867 20.8414 217.566 18.4072 216.964 16.4624C216.374 14.5175 215.534 13.0558 214.442 12.0771C213.363 11.0984 212.089 10.609 210.621 10.609C208.426 10.609 206.669 11.7069 205.351 13.9027C204.034 16.0985 203.369 19.3859 203.356 23.7649C203.356 26.7261 203.651 29.1979 204.241 31.1804C204.843 33.1503 205.69 34.6309 206.782 35.6222C207.873 36.6009 209.153 37.0902 210.621 37.0902ZM231.997 43V37.1278L245.718 24.4237C246.885 23.2944 247.863 22.2781 248.654 21.3746C249.457 20.4712 250.066 19.5866 250.48 18.7209C250.894 17.8426 251.101 16.8952 251.101 15.8789C251.101 14.7496 250.843 13.7772 250.329 12.9616C249.815 12.1335 249.112 11.4999 248.221 11.0607C247.33 10.609 246.32 10.3832 245.191 10.3832C244.011 10.3832 242.983 10.6216 242.104 11.0984C241.226 11.5752 240.548 12.259 240.072 13.1499C239.595 14.0407 239.356 15.101 239.356 16.3306H231.621C231.621 13.8086 232.192 11.6191 233.334 9.76207C234.475 7.90507 236.075 6.46839 238.133 5.45206C240.191 4.43572 242.562 3.92756 245.247 3.92756C248.008 3.92756 250.411 4.4169 252.456 5.3956C254.514 6.36174 256.113 7.70431 257.255 9.42329C258.397 11.1423 258.968 13.1122 258.968 15.3331C258.968 16.7886 258.679 18.2253 258.102 19.6431C257.537 21.061 256.527 22.6357 255.072 24.3672C253.616 26.0862 251.565 28.1502 248.917 30.5593L243.29 36.0739V36.3374H259.476V43H231.997ZM279.459 43.527C276.799 43.527 274.428 43.0376 272.345 42.0589C270.275 41.0803 268.631 39.7314 267.414 38.0124C266.197 36.2934 265.563 34.3235 265.513 32.1026H273.418C273.506 33.5958 274.133 34.8066 275.3 35.7351C276.467 36.6636 277.853 37.1278 279.459 37.1278C280.739 37.1278 281.868 36.8455 282.847 36.2809C283.838 35.7037 284.61 34.907 285.162 33.8906C285.727 32.8617 286.009 31.6823 286.009 30.3523C286.009 28.9972 285.72 27.8052 285.143 26.7763C284.579 25.7474 283.794 24.9444 282.791 24.3672C281.787 23.79 280.639 23.4951 279.346 23.4826C278.217 23.4826 277.119 23.7147 276.053 24.179C274.999 24.6432 274.177 25.2769 273.587 26.0799L266.341 24.7812L268.167 4.45454H291.731V11.1172H274.886L273.888 20.7724H274.114C274.792 19.8188 275.814 19.0283 277.182 18.4009C278.55 17.7736 280.08 17.4599 281.774 17.4599C284.095 17.4599 286.166 18.0057 287.985 19.0973C289.805 20.1889 291.241 21.6883 292.295 23.5955C293.349 25.4902 293.87 27.6734 293.857 30.1452C293.87 32.7425 293.268 35.0513 292.051 37.0714C290.846 39.079 289.158 40.6599 286.988 41.8143C284.83 42.9561 282.32 43.527 279.459 43.527Z" fill="white"/>
</svg>
